<svg width="40" height="42" viewBox="0 0 40 42" fill="none" xmlns="http://www.w3.org/2000/svg">
<rect y="0.837204" width="39.9974" height="41.1136" fill="#080A47"/>
<path d="M0.00130272 0.83992C5.30529 0.83992 10.392 3.00572 14.1425 6.86087C17.893 10.716 20 15.9447 20 21.3967C20 26.8487 17.893 32.0774 14.1425 35.9326C10.392 39.7877 5.30529 41.9535 0.00130463 41.9535L0.00130272 0.83992Z" fill="#F480D4"/>
<path d="M39.6743 16.6193C36.4127 14.796 32.58 14.3793 29.0193 15.4607C25.4587 16.5421 22.4619 19.0332 20.6881 22.3859C18.9143 25.7386 18.5089 29.6783 19.5609 33.3382C20.613 36.9982 23.0365 40.0787 26.2981 41.902L39.6743 16.6193Z" fill="#FFC947"/>
</svg>
